<svg xmlns="http://www.w3.org/2000/svg" xmlns:xlink="http://www.w3.org/1999/xlink" width="2000" zoomAndPan="magnify" viewBox="0 0 1500 1499.999933" height="2000" preserveAspectRatio="xMidYMid meet" version="1.0"><defs><g/><clipPath id="98f9f1f335"><path d="M 0.207031 27.347656 L 1356.933594 27.347656 L 1356.933594 1384.070312 L 0.207031 1384.070312 Z M 0.207031 27.347656 " clip-rule="nonzero"/></clipPath><clipPath id="038c227be0"><path d="M 0.207031 0.347656 L 1356.933594 0.347656 L 1356.933594 1357.070312 L 0.207031 1357.070312 Z M 0.207031 0.347656 " clip-rule="nonzero"/></clipPath><clipPath id="bb6b438a10"><rect x="0" width="1357" y="0" height="1358"/></clipPath><clipPath id="dcf7bfca51"><path d="M 201 0.878906 L 1434 0.878906 L 1434 1385.441406 L 201 1385.441406 Z M 201 0.878906 " clip-rule="nonzero"/></clipPath><clipPath id="8eabafc87b"><path d="M 0.121094 393 L 987 393 L 987 1089 L 0.121094 1089 Z M 0.121094 393 " clip-rule="nonzero"/></clipPath><clipPath id="e63d6ac335"><rect x="0" width="1233" y="0" height="1386"/></clipPath><clipPath id="bd4185395c"><rect x="0" width="1434" y="0" height="1386"/></clipPath></defs><rect x="-150" width="1800" fill="#ffffff" y="-149.999993" height="1799.99992" fill-opacity="1"/><rect x="-150" width="1800" fill="#ffffff" y="-149.999993" height="1799.99992" fill-opacity="1"/><g transform="matrix(1, 0, 0, 1, 66, 50)"><g clip-path="url(#bd4185395c)"><g clip-path="url(#98f9f1f335)"><g transform="matrix(1, 0, 0, 1, 0.000000000000014211, 27)"><g clip-path="url(#bb6b438a10)"><g clip-path="url(#038c227be0)"><path fill="#1d1d1b" d="M 0.207031 0.347656 L 1356.933594 0.347656 L 1356.933594 1357.070312 L 0.207031 1357.070312 Z M 0.207031 0.347656 " fill-opacity="1" fill-rule="nonzero"/></g></g></g></g><g clip-path="url(#dcf7bfca51)"><g transform="matrix(1, 0, 0, 1, 201, 0.000000000000113687)"><g clip-path="url(#e63d6ac335)"><g clip-path="url(#8eabafc87b)"><g fill="#ffffff" fill-opacity="1"><g transform="translate(0.214669, 1083.22436)"><g><path d="M 986.078125 -667.546875 L 986.078125 -689.625 L 843.105469 -689.625 L 843.105469 -667.546875 L 898.824219 -667.546875 L 654.933594 -160.84375 L 550.859375 -392.117188 L 684.367188 -667.546875 L 740.082031 -667.546875 L 740.082031 -689.625 L 595.011719 -689.625 L 595.011719 -667.546875 L 658.085938 -667.546875 L 538.242188 -419.449219 L 425.757812 -667.546875 L 499.347656 -667.546875 L 499.347656 -689.625 L 254.402344 -689.625 L 254.402344 -667.546875 L 295.402344 -667.546875 L 472.011719 -280.683594 L 414.195312 -160.84375 L 183.96875 -667.546875 L 231.277344 -667.546875 L 231.277344 -689.625 L 0 -689.625 L 0 -667.546875 L 53.613281 -667.546875 L 360.582031 5.257812 L 484.628906 -252.300781 L 602.367188 4.203125 L 928.257812 -667.546875 Z M 986.078125 -667.546875 "/></g></g></g></g></g></g></g><g fill="#ffffff" fill-opacity="1"><g transform="translate(927.626454, 939.267332)"><g><path d="M 12.015625 -61.890625 L 41.640625 -61.890625 C 43.171875 -61.890625 44.453125 -61.398438 45.484375 -60.421875 C 46.515625 -59.453125 47.03125 -58.203125 47.03125 -56.671875 C 47.03125 -55.191406 46.515625 -53.992188 45.484375 -53.078125 C 44.453125 -52.171875 43.171875 -51.71875 41.640625 -51.71875 L 16.890625 -51.71875 L 17.6875 -53.21875 L 17.6875 -35.984375 L 16.96875 -36.6875 L 37.65625 -36.6875 C 39.1875 -36.6875 40.46875 -36.195312 41.5 -35.21875 C 42.53125 -34.25 43.046875 -33 43.046875 -31.46875 C 43.046875 -30 42.53125 -28.804688 41.5 -27.890625 C 40.46875 -26.972656 39.1875 -26.515625 37.65625 -26.515625 L 17.234375 -26.515625 L 17.6875 -27.234375 L 17.6875 -9.375 L 16.96875 -10.171875 L 41.640625 -10.171875 C 43.171875 -10.171875 44.453125 -9.65625 45.484375 -8.625 C 46.515625 -7.59375 47.03125 -6.398438 47.03125 -5.046875 C 47.03125 -3.566406 46.515625 -2.351562 45.484375 -1.40625 C 44.453125 -0.46875 43.171875 0 41.640625 0 L 12.015625 0 C 10.484375 0 9.203125 -0.515625 8.171875 -1.546875 C 7.140625 -2.578125 6.625 -3.859375 6.625 -5.390625 L 6.625 -56.484375 C 6.625 -58.023438 7.140625 -59.3125 8.171875 -60.34375 C 9.203125 -61.375 10.484375 -61.890625 12.015625 -61.890625 Z M 12.015625 -61.890625 "/></g></g></g><g fill="#ffffff" fill-opacity="1"><g transform="translate(1005.690861, 939.267332)"><g><path d="M 26.515625 0.890625 C 22.390625 0.890625 18.675781 0.375 15.375 -0.65625 C 12.082031 -1.6875 8.929688 -3.5 5.921875 -6.09375 C 5.160156 -6.75 4.570312 -7.488281 4.15625 -8.3125 C 3.738281 -9.132812 3.53125 -9.957031 3.53125 -10.78125 C 3.53125 -12.132812 4.015625 -13.328125 4.984375 -14.359375 C 5.960938 -15.390625 7.1875 -15.90625 8.65625 -15.90625 C 9.78125 -15.90625 10.785156 -15.554688 11.671875 -14.859375 C 13.910156 -13.023438 16.132812 -11.632812 18.34375 -10.6875 C 20.550781 -9.75 23.273438 -9.28125 26.515625 -9.28125 C 28.703125 -9.28125 30.707031 -9.617188 32.53125 -10.296875 C 34.363281 -10.972656 35.835938 -11.882812 36.953125 -13.03125 C 38.078125 -14.1875 38.640625 -15.5 38.640625 -16.96875 C 38.640625 -18.738281 38.109375 -20.242188 37.046875 -21.484375 C 35.984375 -22.722656 34.359375 -23.769531 32.171875 -24.625 C 29.992188 -25.476562 27.226562 -26.140625 23.875 -26.609375 C 20.6875 -27.078125 17.882812 -27.796875 15.46875 -28.765625 C 13.050781 -29.742188 11.03125 -30.984375 9.40625 -32.484375 C 7.789062 -33.992188 6.570312 -35.765625 5.75 -37.796875 C 4.925781 -39.828125 4.515625 -42.109375 4.515625 -44.640625 C 4.515625 -48.472656 5.5 -51.742188 7.46875 -54.453125 C 9.445312 -57.171875 12.113281 -59.234375 15.46875 -60.640625 C 18.832031 -62.054688 22.546875 -62.765625 26.609375 -62.765625 C 30.441406 -62.765625 33.992188 -62.191406 37.265625 -61.046875 C 40.535156 -59.898438 43.203125 -58.441406 45.265625 -56.671875 C 46.972656 -55.316406 47.828125 -53.753906 47.828125 -51.984375 C 47.828125 -50.679688 47.328125 -49.5 46.328125 -48.4375 C 45.328125 -47.382812 44.144531 -46.859375 42.78125 -46.859375 C 41.90625 -46.859375 41.113281 -47.125 40.40625 -47.65625 C 39.457031 -48.476562 38.1875 -49.253906 36.59375 -49.984375 C 35.007812 -50.722656 33.332031 -51.34375 31.5625 -51.84375 C 29.789062 -52.351562 28.140625 -52.609375 26.609375 -52.609375 C 24.078125 -52.609375 21.941406 -52.28125 20.203125 -51.625 C 18.460938 -50.976562 17.148438 -50.09375 16.265625 -48.96875 C 15.378906 -47.851562 14.9375 -46.5625 14.9375 -45.09375 C 14.9375 -43.320312 15.453125 -41.859375 16.484375 -40.703125 C 17.515625 -39.554688 19.003906 -38.644531 20.953125 -37.96875 C 22.898438 -37.289062 25.226562 -36.6875 27.9375 -36.15625 C 31.46875 -35.507812 34.570312 -34.742188 37.25 -33.859375 C 39.9375 -32.972656 42.164062 -31.835938 43.9375 -30.453125 C 45.707031 -29.066406 47.035156 -27.328125 47.921875 -25.234375 C 48.804688 -23.148438 49.25 -20.601562 49.25 -17.59375 C 49.25 -13.757812 48.1875 -10.457031 46.0625 -7.6875 C 43.9375 -4.914062 41.148438 -2.789062 37.703125 -1.3125 C 34.253906 0.15625 30.523438 0.890625 26.515625 0.890625 Z M 26.515625 0.890625 "/></g></g></g><g fill="#ffffff" fill-opacity="1"><g transform="translate(1085.96524, 939.267332)"><g><path d="M 27.578125 0 C 25.929688 0 24.578125 -0.515625 23.515625 -1.546875 C 22.453125 -2.578125 21.921875 -3.859375 21.921875 -5.390625 L 21.921875 -56.671875 L 33.421875 -56.671875 L 33.421875 -5.390625 C 33.421875 -3.859375 32.875 -2.578125 31.78125 -1.546875 C 30.6875 -0.515625 29.285156 0 27.578125 0 Z M 8.046875 -51.71875 C 6.515625 -51.71875 5.234375 -52.1875 4.203125 -53.125 C 3.171875 -54.070312 2.65625 -55.3125 2.65625 -56.84375 C 2.65625 -58.375 3.171875 -59.597656 4.203125 -60.515625 C 5.234375 -61.429688 6.515625 -61.890625 8.046875 -61.890625 L 47.296875 -61.890625 C 48.828125 -61.890625 50.109375 -61.414062 51.140625 -60.46875 C 52.171875 -59.53125 52.6875 -58.289062 52.6875 -56.75 C 52.6875 -55.21875 52.171875 -53.992188 51.140625 -53.078125 C 50.109375 -52.171875 48.828125 -51.71875 47.296875 -51.71875 Z M 8.046875 -51.71875 "/></g></g></g><g fill="#ffffff" fill-opacity="1"><g transform="translate(1159.961845, 939.267332)"><g><path d="M 10.4375 -0.09375 C 8.726562 -0.09375 7.414062 -0.546875 6.5 -1.453125 C 5.582031 -2.367188 5.125 -3.679688 5.125 -5.390625 L 5.125 -6.890625 C 5.125 -8.597656 5.582031 -9.910156 6.5 -10.828125 C 7.414062 -11.742188 8.726562 -12.203125 10.4375 -12.203125 L 11.578125 -12.203125 C 13.285156 -12.203125 14.597656 -11.742188 15.515625 -10.828125 C 16.429688 -9.910156 16.890625 -8.597656 16.890625 -6.890625 L 16.890625 -5.390625 C 16.890625 -3.679688 16.429688 -2.367188 15.515625 -1.453125 C 14.597656 -0.546875 13.285156 -0.09375 11.578125 -0.09375 Z M 10.4375 -0.09375 "/></g></g></g><g fill="#ffffff" fill-opacity="1"><g transform="translate(911.656664, 1061.372634)"><g><path d="M 40.484375 -9.71875 C 41.898438 -9.71875 43.078125 -9.242188 44.015625 -8.296875 C 44.960938 -7.359375 45.4375 -6.1875 45.4375 -4.78125 C 45.4375 -3.414062 44.960938 -2.273438 44.015625 -1.359375 C 43.078125 -0.453125 41.898438 0 40.484375 0 L 10.4375 0 C 8.90625 0 7.695312 -0.46875 6.8125 -1.40625 C 5.925781 -2.351562 5.484375 -3.566406 5.484375 -5.046875 C 5.484375 -6.515625 6.015625 -7.804688 7.078125 -8.921875 L 26.34375 -29.53125 C 28.519531 -31.882812 30.242188 -34.296875 31.515625 -36.765625 C 32.785156 -39.242188 33.421875 -41.398438 33.421875 -43.234375 C 33.421875 -46.179688 32.566406 -48.550781 30.859375 -50.34375 C 29.148438 -52.144531 26.878906 -53.046875 24.046875 -53.046875 C 22.921875 -53.046875 21.769531 -52.78125 20.59375 -52.25 C 19.414062 -51.71875 18.28125 -50.976562 17.1875 -50.03125 C 16.101562 -49.09375 15.085938 -48.003906 14.140625 -46.765625 C 13.429688 -45.828125 12.722656 -45.238281 12.015625 -45 C 11.316406 -44.757812 10.671875 -44.640625 10.078125 -44.640625 C 8.785156 -44.640625 7.59375 -45.125 6.5 -46.09375 C 5.40625 -47.070312 4.859375 -48.207031 4.859375 -49.5 C 4.859375 -50.507812 5.195312 -51.484375 5.875 -52.421875 C 6.550781 -53.367188 7.394531 -54.34375 8.40625 -55.34375 C 9.875 -56.8125 11.519531 -58.101562 13.34375 -59.21875 C 15.175781 -60.34375 17.0625 -61.210938 19 -61.828125 C 20.945312 -62.453125 22.835938 -62.765625 24.671875 -62.765625 C 28.617188 -62.765625 32.050781 -61.984375 34.96875 -60.421875 C 37.882812 -58.859375 40.132812 -56.644531 41.71875 -53.78125 C 43.3125 -50.925781 44.109375 -47.554688 44.109375 -43.671875 C 44.109375 -40.429688 43.148438 -36.820312 41.234375 -32.84375 C 39.328125 -28.863281 36.75 -25.132812 33.5 -21.65625 L 21.578125 -8.921875 L 20.59375 -9.71875 Z M 40.484375 -9.71875 "/></g></g></g><g fill="#ffffff" fill-opacity="1"><g transform="translate(989.455878, 1061.372634)"><g><path d="M 27.140625 0.890625 C 22.066406 0.890625 17.773438 -0.445312 14.265625 -3.125 C 10.765625 -5.8125 8.097656 -9.554688 6.265625 -14.359375 C 4.441406 -19.171875 3.53125 -24.695312 3.53125 -30.9375 C 3.53125 -37.25 4.441406 -42.789062 6.265625 -47.5625 C 8.097656 -52.332031 10.765625 -56.054688 14.265625 -58.734375 C 17.773438 -61.421875 22.066406 -62.765625 27.140625 -62.765625 C 32.210938 -62.765625 36.5 -61.421875 40 -58.734375 C 43.507812 -56.054688 46.175781 -52.332031 48 -47.5625 C 49.832031 -42.789062 50.75 -37.25 50.75 -30.9375 C 50.75 -24.695312 49.832031 -19.171875 48 -14.359375 C 46.175781 -9.554688 43.507812 -5.8125 40 -3.125 C 36.5 -0.445312 32.210938 0.890625 27.140625 0.890625 Z M 27.140625 -9.71875 C 29.617188 -9.71875 31.753906 -10.5 33.546875 -12.0625 C 35.347656 -13.625 36.75 -15.984375 37.75 -19.140625 C 38.75 -22.296875 39.25 -26.226562 39.25 -30.9375 C 39.25 -35.71875 38.75 -39.664062 37.75 -42.78125 C 36.75 -45.90625 35.347656 -48.25 33.546875 -49.8125 C 31.753906 -51.375 29.617188 -52.15625 27.140625 -52.15625 C 24.722656 -52.15625 22.597656 -51.375 20.765625 -49.8125 C 18.941406 -48.25 17.53125 -45.90625 16.53125 -42.78125 C 15.53125 -39.664062 15.03125 -35.71875 15.03125 -30.9375 C 15.03125 -26.226562 15.53125 -22.296875 16.53125 -19.140625 C 17.53125 -15.984375 18.941406 -13.625 20.765625 -12.0625 C 22.597656 -10.5 24.722656 -9.71875 27.140625 -9.71875 Z M 27.140625 -9.71875 "/></g></g></g><g fill="#ffffff" fill-opacity="1"><g transform="translate(1071.233048, 1061.372634)"><g><path d="M 40.484375 -9.71875 C 41.898438 -9.71875 43.078125 -9.242188 44.015625 -8.296875 C 44.960938 -7.359375 45.4375 -6.1875 45.4375 -4.78125 C 45.4375 -3.414062 44.960938 -2.273438 44.015625 -1.359375 C 43.078125 -0.453125 41.898438 0 40.484375 0 L 10.4375 0 C 8.90625 0 7.695312 -0.46875 6.8125 -1.40625 C 5.925781 -2.351562 5.484375 -3.566406 5.484375 -5.046875 C 5.484375 -6.515625 6.015625 -7.804688 7.078125 -8.921875 L 26.34375 -29.53125 C 28.519531 -31.882812 30.242188 -34.296875 31.515625 -36.765625 C 32.785156 -39.242188 33.421875 -41.398438 33.421875 -43.234375 C 33.421875 -46.179688 32.566406 -48.550781 30.859375 -50.34375 C 29.148438 -52.144531 26.878906 -53.046875 24.046875 -53.046875 C 22.921875 -53.046875 21.769531 -52.78125 20.59375 -52.25 C 19.414062 -51.71875 18.28125 -50.976562 17.1875 -50.03125 C 16.101562 -49.09375 15.085938 -48.003906 14.140625 -46.765625 C 13.429688 -45.828125 12.722656 -45.238281 12.015625 -45 C 11.316406 -44.757812 10.671875 -44.640625 10.078125 -44.640625 C 8.785156 -44.640625 7.59375 -45.125 6.5 -46.09375 C 5.40625 -47.070312 4.859375 -48.207031 4.859375 -49.5 C 4.859375 -50.507812 5.195312 -51.484375 5.875 -52.421875 C 6.550781 -53.367188 7.394531 -54.34375 8.40625 -55.34375 C 9.875 -56.8125 11.519531 -58.101562 13.34375 -59.21875 C 15.175781 -60.34375 17.0625 -61.210938 19 -61.828125 C 20.945312 -62.453125 22.835938 -62.765625 24.671875 -62.765625 C 28.617188 -62.765625 32.050781 -61.984375 34.96875 -60.421875 C 37.882812 -58.859375 40.132812 -56.644531 41.71875 -53.78125 C 43.3125 -50.925781 44.109375 -47.554688 44.109375 -43.671875 C 44.109375 -40.429688 43.148438 -36.820312 41.234375 -32.84375 C 39.328125 -28.863281 36.75 -25.132812 33.5 -21.65625 L 21.578125 -8.921875 L 20.59375 -9.71875 Z M 40.484375 -9.71875 "/></g></g></g><g fill="#ffffff" fill-opacity="1"><g transform="translate(1149.032262, 1061.372634)"><g><path d="M 25.203125 0.890625 C 22.015625 0.890625 19.140625 0.226562 16.578125 -1.09375 C 14.015625 -2.425781 11.832031 -4.238281 10.03125 -6.53125 C 8.238281 -8.832031 6.851562 -11.425781 5.875 -14.3125 C 4.90625 -17.207031 4.421875 -20.1875 4.421875 -23.25 C 4.421875 -25.25 4.640625 -27.664062 5.078125 -30.5 C 5.523438 -33.332031 6.304688 -36.304688 7.421875 -39.421875 C 8.546875 -42.546875 10.109375 -45.582031 12.109375 -48.53125 C 14.117188 -51.476562 16.671875 -54.128906 19.765625 -56.484375 C 22.859375 -58.847656 26.644531 -60.648438 31.125 -61.890625 C 31.832031 -62.066406 32.507812 -62.15625 33.15625 -62.15625 C 34.507812 -62.15625 35.726562 -61.800781 36.8125 -61.09375 C 37.90625 -60.382812 38.453125 -59.085938 38.453125 -57.203125 C 38.453125 -55.898438 38.023438 -54.765625 37.171875 -53.796875 C 36.316406 -52.828125 35.179688 -52.132812 33.765625 -51.71875 C 31.765625 -51.125 29.773438 -50.253906 27.796875 -49.109375 C 25.828125 -47.960938 24 -46.5625 22.3125 -44.90625 C 20.632812 -43.257812 19.191406 -41.390625 17.984375 -39.296875 C 16.773438 -37.203125 15.90625 -34.945312 15.375 -32.53125 L 13 -32.625 C 13.820312 -33.625 14.835938 -34.695312 16.046875 -35.84375 C 17.253906 -37 18.726562 -38.003906 20.46875 -38.859375 C 22.207031 -39.710938 24.253906 -40.140625 26.609375 -40.140625 C 28.910156 -40.140625 31.191406 -39.609375 33.453125 -38.546875 C 35.722656 -37.484375 37.785156 -36.023438 39.640625 -34.171875 C 41.503906 -32.316406 42.992188 -30.132812 44.109375 -27.625 C 45.234375 -25.125 45.796875 -22.457031 45.796875 -19.625 C 45.796875 -15.851562 44.863281 -12.40625 43 -9.28125 C 41.144531 -6.15625 38.671875 -3.675781 35.578125 -1.84375 C 32.484375 -0.0195312 29.023438 0.890625 25.203125 0.890625 Z M 25.203125 -8.84375 C 27.085938 -8.84375 28.78125 -9.3125 30.28125 -10.25 C 31.78125 -11.195312 32.972656 -12.492188 33.859375 -14.140625 C 34.742188 -15.796875 35.1875 -17.625 35.1875 -19.625 C 35.1875 -21.6875 34.742188 -23.523438 33.859375 -25.140625 C 32.972656 -26.765625 31.78125 -28.046875 30.28125 -28.984375 C 28.78125 -29.929688 27.085938 -30.40625 25.203125 -30.40625 C 23.304688 -30.40625 21.609375 -29.929688 20.109375 -28.984375 C 18.609375 -28.046875 17.414062 -26.765625 16.53125 -25.140625 C 15.644531 -23.523438 15.203125 -21.6875 15.203125 -19.625 C 15.203125 -17.625 15.644531 -15.796875 16.53125 -14.140625 C 17.414062 -12.492188 18.609375 -11.195312 20.109375 -10.25 C 21.609375 -9.3125 23.304688 -8.84375 25.203125 -8.84375 Z M 25.203125 -8.84375 "/></g></g></g></g></g></svg>